# Blender v2.79 (sub 0) OBJ File: 'nowe5.blend'
# www.blender.org
mtllib niekaptur.mtl
o Cylinder.001_Cylinder.002
v 0.659996 1.128841 -0.006447
v 0.307617 1.382380 -0.095577
v 0.678576 1.180544 0.033223
v 0.279068 1.469447 -0.080880
v 0.662468 1.198476 0.097781
v 0.290920 1.488134 -0.000049
v 0.624403 1.173459 0.143972
v 0.581806 1.115174 0.147813
v 0.234496 1.466376 0.065474
v 0.212415 1.369011 0.066557
v 0.568728 1.062786 0.094893
v 0.210110 1.314307 0.014265
v 0.607957 1.063908 0.008177
v 0.246277 1.315060 -0.074014
v 0.107155 0.832892 -0.127646
v 0.201279 0.832925 -0.048558
v 0.188948 1.300202 -0.049659
v 0.216945 0.832898 0.052143
v 0.156989 0.832898 0.136890
v 0.173924 1.289820 0.103931
v 0.089789 1.363633 0.162747
v 0.115526 1.509772 -0.121992
v 0.104173 1.380563 -0.133724
v 0.122544 1.480607 0.108374
v 0.156649 1.555053 -0.065158
v 0.143030 1.555473 0.007631
v 0.075382 1.550137 0.073094
v 0.072940 1.533263 -0.111177
v 0.234745 1.516131 -0.027289
v 0.211708 1.524320 0.002589
v 0.106105 0.890740 -0.129429
v 0.153336 0.890740 0.133387
v 0.198549 0.890740 -0.050404
v 0.177326 1.417741 -0.111621
v 0.212438 0.890740 0.050923
v 0.054976 1.416192 0.149495
v 0.162915 0.996611 0.122828
v 0.200866 1.382686 -0.115747
v 0.213796 0.996611 0.037116
v 0.105600 0.996611 -0.130257
v 0.134670 0.996611 0.142944
v 0.200468 0.996611 0.069747
v 0.028706 0.996611 0.180548
v 0.196240 0.996611 -0.050325
v 0.189215 1.094492 -0.047741
v 0.207461 1.094492 0.030368
v 0.186913 1.094492 0.080676
v 0.102471 1.094492 -0.126443
v 0.162776 1.094492 0.114794
v 0.044256 1.094492 0.172414
v 0.119230 1.094492 0.145807
v 0.107868 1.198367 0.152345
v 0.168705 1.198367 0.109017
v 0.208713 1.198367 0.022758
v 0.061830 1.198367 0.168683
v 0.180006 1.198367 0.093043
v 0.178364 1.494277 -0.106196
v 0.103089 1.198367 -0.129086
v 0.189970 1.531752 -0.069438
v 0.189080 1.198367 -0.048709
v 0.197835 1.534526 -0.045187
v 0.184286 1.515286 0.033721
v 0.170562 1.420982 0.086031
v 0.103661 1.294529 -0.131534
v 0.075810 1.281000 0.165715
v 0.098828 1.281000 0.157546
v 0.560566 1.136653 0.142778
v 0.550901 1.124307 -0.011506
v 0.629242 1.224379 0.089032
v 0.602349 1.190026 0.139532
v 0.557062 1.132178 0.142370
v 0.526129 1.092664 0.085315
v 0.597910 1.184355 -0.018578
v 0.626561 1.220953 0.095070
v 0.625164 1.219169 0.017968
v 0.540363 1.110846 -0.007184
v 0.626978 1.221485 0.028794
v 0.592524 1.177476 -0.023537
v 0.520221 1.229593 -0.041851
v 0.556594 1.277332 0.022753
v 0.484166 1.182270 0.126335
v 0.454285 1.143052 0.069163
v 0.531201 1.244003 -0.031613
v 0.497781 1.200140 0.127893
v 0.550104 1.268813 0.089299
v 0.489515 1.189290 -0.032682
v 0.552380 1.271802 -0.002820
v 0.558354 1.279643 0.070367
v 0.468021 1.161080 -0.023623
v 0.530945 1.243668 0.125157
v 0.408490 1.202419 -0.037152
v 0.476686 1.292747 -0.042266
v 0.472679 1.287441 0.113426
v 0.446171 1.252329 0.115657
v 0.487977 1.307703 0.084609
v 0.438972 1.242794 -0.050118
v 0.499343 1.322758 0.017839
v 0.493188 1.314606 -0.019726
v 0.424325 1.223392 0.113172
v 0.500716 1.324577 0.055191
v 0.395041 1.184604 0.055843
v 0.461151 1.272171 -0.056813
v 0.386927 1.297889 -0.068072
v 0.439396 1.370324 0.012694
v 0.348133 1.244332 -0.050868
v 0.431402 1.359287 -0.037372
v 0.419950 1.343477 -0.053352
v 0.363327 1.265308 0.099754
v 0.412245 1.332842 0.101260
v 0.440349 1.371639 0.039296
v 0.392926 1.306171 0.103034
v 0.335246 1.226542 0.042399
v 0.423343 1.348162 0.079730
v 0.400149 1.316143 -0.072264
v 0.349466 1.352676 -0.085102
v 0.362447 1.370252 0.091234
v 0.343194 1.344184 -0.083159
v 0.391562 1.409673 0.026450
v 0.390912 1.408794 0.008533
v 0.348384 1.351211 0.092474
v 0.296122 1.280448 -0.062687
v 0.283245 1.263013 0.030708
v 0.381175 1.395609 -0.051718
v 0.370543 1.381214 0.075744
v 0.373408 1.385093 -0.062446
v 0.311330 1.301040 0.088316
v 0.270366 1.443922 0.068182
v 0.265996 1.434522 0.072942
v 0.268818 1.440591 0.072384
v 0.229942 1.356967 0.070412
v 0.257810 1.307052 -0.071393
v 0.245596 1.289418 0.022243
v 0.322416 1.400326 0.083174
v 0.339848 1.425494 -0.063521
v 0.327737 1.408009 0.072513
v 0.350865 1.441401 0.015735
v 0.335402 1.419075 -0.069872
v 0.350494 1.440864 0.005064
v 0.272248 1.327896 0.079719
v 0.313106 1.386885 0.084111
v -0.659996 1.128841 -0.006447
v -0.307617 1.382380 -0.095577
v -0.678576 1.180544 0.033223
v -0.279068 1.469447 -0.080880
v -0.662468 1.198476 0.097781
v -0.290920 1.488134 -0.000049
v -0.624403 1.173459 0.143972
v -0.581806 1.115174 0.147813
v -0.234496 1.466376 0.065474
v -0.212415 1.369011 0.066557
v -0.568728 1.062786 0.094893
v -0.210110 1.314307 0.014265
v -0.607957 1.063908 0.008177
v -0.246277 1.315060 -0.074014
v -0.107155 0.832892 -0.127646
v -0.201279 0.832925 -0.048558
v -0.188948 1.300202 -0.049659
v -0.216945 0.832898 0.052143
v -0.156989 0.832898 0.136890
v -0.173924 1.289820 0.103931
v -0.089789 1.363633 0.162747
v -0.115526 1.509772 -0.121992
v -0.104173 1.380563 -0.133724
v -0.122544 1.480607 0.108374
v -0.156649 1.555053 -0.065158
v -0.143030 1.555473 0.007631
v -0.075382 1.550137 0.073094
v -0.072940 1.533263 -0.111177
v -0.234745 1.516131 -0.027289
v 0.000000 0.832898 -0.144999
v 0.000000 1.484920 -0.137871
v 0.000000 0.832897 0.192601
v 0.000000 1.363780 0.174972
v 0.000000 1.499192 0.128569
v -0.211708 1.524320 0.002589
v 0.000000 1.549837 0.089806
v 0.000000 1.532272 -0.105398
v -0.106105 0.890740 -0.129429
v -0.153336 0.890740 0.133387
v -0.198549 0.890740 -0.050404
v -0.177326 1.417741 -0.111621
v 0.000000 0.890740 0.187363
v -0.212438 0.890740 0.050923
v -0.054976 1.416192 0.149495
v 0.000000 0.890740 -0.145173
v -0.162915 0.996611 0.122828
v -0.200866 1.382686 -0.115747
v 0.000000 0.996611 0.184457
v -0.213796 0.996611 0.037116
v -0.105600 0.996611 -0.130257
v -0.134670 0.996611 0.142944
v 0.000000 0.996611 -0.143330
v -0.200468 0.996611 0.069747
v -0.028706 0.996611 0.180548
v -0.196240 0.996611 -0.050325
v -0.189215 1.094492 -0.047741
v -0.207461 1.094492 0.030368
v -0.186913 1.094492 0.080676
v -0.102471 1.094492 -0.126443
v -0.162776 1.094492 0.114794
v 0.000000 1.094492 -0.136827
v -0.044256 1.094492 0.172414
v -0.119230 1.094492 0.145807
v 0.000000 1.094492 0.178440
v -0.107868 1.198367 0.152345
v -0.168705 1.198367 0.109017
v 0.000000 1.198367 0.177102
v -0.208713 1.198367 0.022758
v -0.061830 1.198367 0.168683
v -0.180006 1.198367 0.093043
v -0.178364 1.494277 -0.106196
v -0.103089 1.198367 -0.129086
v 0.000000 1.198367 -0.137105
v -0.189970 1.531752 -0.069438
v -0.189080 1.198367 -0.048709
v -0.197835 1.534526 -0.045187
v -0.184286 1.515286 0.033721
v 0.000000 1.380563 -0.133724
v 0.000000 1.288989 -0.135423
v -0.170562 1.420982 0.086031
v -0.103661 1.294529 -0.131534
v -0.075810 1.281000 0.165715
v -0.098828 1.281000 0.157546
v 0.000000 1.281073 0.176037
v -0.560566 1.136653 0.142778
v -0.550901 1.124307 -0.011506
v -0.629242 1.224379 0.089032
v -0.602349 1.190026 0.139532
v -0.557062 1.132178 0.142370
v -0.526129 1.092664 0.085315
v -0.597910 1.184355 -0.018578
v -0.626561 1.220953 0.095070
v -0.625164 1.219169 0.017968
v -0.540363 1.110846 -0.007184
v -0.626978 1.221485 0.028794
v -0.592524 1.177476 -0.023537
v -0.520221 1.229593 -0.041851
v -0.556594 1.277332 0.022753
v -0.484166 1.182270 0.126335
v -0.454285 1.143052 0.069163
v -0.531201 1.244003 -0.031613
v -0.497781 1.200140 0.127893
v -0.550104 1.268813 0.089299
v -0.489515 1.189290 -0.032682
v -0.552380 1.271802 -0.002820
v -0.558354 1.279643 0.070367
v -0.468021 1.161080 -0.023623
v -0.530945 1.243668 0.125157
v -0.408490 1.202419 -0.037152
v -0.476686 1.292747 -0.042266
v -0.472679 1.287441 0.113426
v -0.446171 1.252329 0.115657
v -0.487977 1.307703 0.084609
v -0.438972 1.242794 -0.050118
v -0.499343 1.322758 0.017839
v -0.493188 1.314606 -0.019726
v -0.424325 1.223392 0.113172
v -0.500716 1.324577 0.055191
v -0.395041 1.184604 0.055843
v -0.461151 1.272171 -0.056813
v -0.386927 1.297889 -0.068072
v -0.439396 1.370324 0.012694
v -0.348133 1.244332 -0.050868
v -0.431402 1.359287 -0.037372
v -0.419950 1.343477 -0.053352
v -0.363327 1.265308 0.099754
v -0.412245 1.332842 0.101260
v -0.440349 1.371639 0.039296
v -0.392926 1.306171 0.103034
v -0.335246 1.226542 0.042399
v -0.423343 1.348162 0.079730
v -0.400149 1.316143 -0.072264
v -0.349466 1.352676 -0.085102
v -0.362447 1.370252 0.091234
v -0.343194 1.344184 -0.083159
v -0.391562 1.409673 0.026450
v -0.390912 1.408794 0.008533
v -0.348384 1.351211 0.092474
v -0.296122 1.280448 -0.062687
v -0.283245 1.263013 0.030708
v -0.381175 1.395609 -0.051718
v -0.370543 1.381214 0.075744
v -0.373408 1.385093 -0.062446
v -0.311330 1.301040 0.088316
v -0.270366 1.443922 0.068182
v -0.265996 1.434522 0.072942
v -0.268818 1.440591 0.072384
v -0.229942 1.356967 0.070412
v -0.257810 1.307052 -0.071393
v -0.245596 1.289418 0.022243
v -0.322416 1.400326 0.083174
v -0.339848 1.425494 -0.063521
v -0.327737 1.408009 0.072513
v -0.350865 1.441401 0.015735
v -0.335402 1.419075 -0.069872
v -0.350494 1.440864 0.005064
v -0.272248 1.327896 0.079719
v -0.313106 1.386885 0.084111
vn 0.5082 0.4019 -0.7618
vn 0.6236 0.7794 -0.0609
vn 0.3636 0.6602 0.6572
vn -0.0966 0.1356 0.9860
vn 0.8119 0.0809 0.5781
vn 0.3344 -0.0227 0.9422
vn 0.9084 -0.3082 0.2824
vn 0.6136 0.0729 0.7863
vn -0.0781 -0.7588 -0.6466
vn 0.1283 0.3215 0.9382
vn 0.3601 0.7475 0.5583
vn 0.5297 0.8060 -0.2640
vn 0.3312 0.6064 -0.7228
vn 0.3245 0.7264 0.6058
vn 0.2032 0.6888 -0.6959
vn 0.4219 0.2837 -0.8611
vn 0.6135 0.7449 -0.2622
vn 0.4002 0.7093 0.5802
vn -0.1804 0.0518 0.9822
vn -0.5247 -0.8217 -0.2226
vn 0.0000 -0.0397 -0.9992
vn 0.0028 -0.3074 -0.9516
vn 0.6828 -0.0059 -0.7305
vn 0.9878 0.0580 -0.1445
vn 0.1731 0.2290 -0.9579
vn 0.9256 0.0165 0.3781
vn 0.5801 0.0122 0.8145
vn 0.1349 0.0128 0.9908
vn 0.2937 -0.9493 0.1122
vn 0.2050 0.3648 0.9082
vn 0.1660 -0.4348 -0.8851
vn 0.2012 0.5699 0.7967
vn 0.4164 0.9063 0.0727
vn -0.5339 -0.5695 0.6251
vn 0.5088 0.6382 0.5778
vn -0.0728 0.5641 -0.8225
vn 0.3321 0.0815 0.9397
vn 0.1533 -0.0153 -0.9881
vn 0.6465 -0.0028 -0.7629
vn 0.8141 -0.0135 0.5805
vn 0.9864 -0.0062 -0.1643
vn 0.3329 -0.0280 0.9426
vn 0.8154 0.0485 0.5769
vn 0.9755 0.0621 -0.2110
vn 0.1349 0.0051 -0.9908
vn 0.6556 0.0060 -0.7551
vn 0.5799 0.0287 0.8142
vn 0.1787 0.2239 -0.9581
vn 0.1349 0.0272 0.9905
vn 0.9251 0.0374 0.3778
vn 0.3343 0.0252 0.9421
vn 0.9224 0.0857 0.3767
vn 0.1119 0.0541 -0.9923
vn 0.9693 -0.0153 -0.2455
vn 0.5788 0.0675 0.8127
vn 0.6655 0.0588 -0.7441
vn 0.8163 -0.0145 0.5775
vn 0.1347 0.0608 0.9890
vn 0.0892 -0.0143 -0.9959
vn 0.6774 -0.0144 -0.7355
vn 0.3783 0.7450 0.5494
vn 0.9643 -0.0012 -0.2649
vn 0.2583 0.0648 -0.9639
vn 0.0000 0.0186 -0.9998
vn 0.0388 -0.0257 -0.9989
vn 0.0775 0.0185 -0.9968
vn 0.6931 -0.0225 -0.7205
vn 0.1742 -0.4298 -0.8860
vn 0.6004 0.1927 0.7762
vn 0.3493 -0.0688 0.9345
vn 0.9510 -0.0340 -0.3073
vn -0.5228 -0.5395 0.6600
vn 0.4243 0.2869 -0.8589
vn 0.4002 0.7094 0.5802
vn -0.5172 -0.8207 -0.2427
vn 0.0026 -0.3076 -0.9515
vn 0.0556 -0.2615 -0.9636
vn -0.5239 -0.5450 0.6546
vn -0.5189 -0.8208 -0.2387
vn -0.5265 -0.5510 0.6474
vn -0.5201 -0.8213 -0.2346
vn -0.5288 -0.5565 0.6408
vn -0.5212 -0.8216 -0.2308
vn -0.5310 -0.5616 0.6346
vn -0.5223 -0.8220 -0.2272
vn -0.5313 -0.5736 0.6235
vn -0.5231 -0.8222 -0.2243
vn 0.0025 -0.3073 -0.9516
vn -0.5327 -0.5657 0.6294
vn 0.4214 0.2866 -0.8604
vn 0.1190 0.0794 -0.9897
vn 0.0246 0.4546 -0.8904
vn -0.5082 0.4019 -0.7618
vn -0.6236 0.7794 -0.0609
vn -0.3636 0.6602 0.6572
vn 0.0966 0.1356 0.9860
vn -0.8119 0.0809 0.5781
vn -0.3344 -0.0227 0.9422
vn -0.9084 -0.3082 0.2824
vn -0.6136 0.0729 0.7863
vn 0.0781 -0.7588 -0.6466
vn -0.1283 0.3215 0.9382
vn -0.3601 0.7475 0.5583
vn -0.5297 0.8060 -0.2640
vn -0.3312 0.6064 -0.7228
vn -0.3245 0.7264 0.6058
vn -0.2032 0.6888 -0.6959
vn -0.4219 0.2837 -0.8611
vn -0.6135 0.7449 -0.2622
vn -0.4002 0.7093 0.5802
vn 0.1804 0.0518 0.9822
vn 0.5247 -0.8217 -0.2226
vn -0.0028 -0.3074 -0.9516
vn -0.6828 -0.0059 -0.7305
vn -0.9878 0.0580 -0.1445
vn -0.1731 0.2290 -0.9579
vn -0.9256 0.0165 0.3781
vn -0.5801 0.0122 0.8145
vn -0.1349 0.0128 0.9908
vn -0.2937 -0.9493 0.1122
vn -0.2050 0.3648 0.9082
vn -0.1660 -0.4348 -0.8851
vn -0.2012 0.5699 0.7967
vn -0.4164 0.9063 0.0727
vn 0.5339 -0.5695 0.6251
vn -0.5088 0.6382 0.5778
vn 0.0728 0.5641 -0.8225
vn -0.3321 0.0815 0.9397
vn -0.1533 -0.0153 -0.9881
vn -0.6465 -0.0028 -0.7629
vn -0.8141 -0.0135 0.5805
vn -0.9864 -0.0062 -0.1643
vn -0.3329 -0.0280 0.9426
vn -0.8154 0.0485 0.5769
vn -0.9755 0.0621 -0.2110
vn -0.1349 0.0051 -0.9908
vn -0.6556 0.0060 -0.7551
vn -0.5799 0.0287 0.8142
vn -0.1787 0.2239 -0.9581
vn -0.1349 0.0272 0.9905
vn -0.9251 0.0374 0.3778
vn -0.3343 0.0252 0.9421
vn -0.9224 0.0857 0.3767
vn -0.1119 0.0541 -0.9923
vn -0.9693 -0.0153 -0.2455
vn -0.5788 0.0675 0.8127
vn -0.6655 0.0588 -0.7441
vn -0.8163 -0.0145 0.5775
vn -0.1347 0.0608 0.9890
vn -0.0892 -0.0143 -0.9959
vn -0.6774 -0.0144 -0.7355
vn -0.3783 0.7450 0.5494
vn -0.9643 -0.0012 -0.2649
vn -0.2583 0.0648 -0.9639
vn -0.0388 -0.0257 -0.9989
vn -0.0775 0.0185 -0.9968
vn -0.6931 -0.0225 -0.7205
vn -0.1742 -0.4298 -0.8860
vn -0.6004 0.1927 0.7762
vn -0.3493 -0.0688 0.9345
vn -0.9510 -0.0340 -0.3073
vn 0.5228 -0.5395 0.6600
vn -0.4243 0.2869 -0.8589
vn -0.4002 0.7094 0.5802
vn 0.5172 -0.8207 -0.2427
vn -0.0026 -0.3076 -0.9515
vn -0.0556 -0.2615 -0.9636
vn 0.5239 -0.5450 0.6546
vn 0.5189 -0.8208 -0.2387
vn 0.5265 -0.5510 0.6474
vn 0.5201 -0.8213 -0.2346
vn 0.5288 -0.5565 0.6408
vn 0.5212 -0.8216 -0.2308
vn 0.5310 -0.5616 0.6346
vn 0.5223 -0.8220 -0.2272
vn -0.5082 0.4018 -0.7618
vn 0.5313 -0.5736 0.6235
vn 0.5231 -0.8222 -0.2243
vn -0.0025 -0.3073 -0.9516
vn 0.5327 -0.5657 0.6294
vn -0.4214 0.2866 -0.8604
vn -0.1190 0.0794 -0.9897
vn -0.0246 0.4546 -0.8904
usemtl None
s off
f 4//1 134//1 137//1
f 6//2 136//2 138//2
f 9//3 129//3 127//3
f 7//4 70//4 67//4 8//4
f 18//5 35//5 32//5 19//5
f 21//6 65//6 66//6
f 10//7 20//7 12//7
f 20//8 10//8 21//8
f 14//9 17//9 23//9
f 21//10 36//10 173//10
f 9//11 6//11 30//11
f 4//12 59//12 61//12 29//12
f 22//13 25//13 59//13 57//13
f 24//14 62//14 26//14
f 25//15 22//15 28//15
f 2//16 4//16 137//16
f 4//17 6//17 138//17 134//17
f 6//18 127//18 135//18 136//18
f 8//19 67//19 71//19
f 14//20 131//20 132//20 12//20
f 171//21 23//21 218//21
f 14//22 2//22 131//22
f 17//23 60//23 58//23
f 18//24 16//24 33//24 35//24
f 23//25 34//25 38//25
f 12//26 20//26 54//26
f 20//27 66//27 52//27 53//27
f 21//28 173//28 224//28 65//28
f 14//29 12//29 17//29
f 21//30 24//30 36//30
f 2//31 14//31 38//31
f 176//32 174//32 24//32 27//32
f 25//33 26//33 30//33 61//33
f 12//34 132//34 139//34 130//34
f 24//35 26//35 27//35
f 171//36 177//36 28//36
f 32//37 182//37 172//37 19//37
f 185//38 31//38 15//38 170//38
f 31//39 33//39 16//39 15//39
f 173//10 36//10 174//10
f 32//40 35//40 42//40 37//40
f 35//41 33//41 44//41 39//41
f 41//42 43//42 182//42 32//42
f 37//43 42//43 47//43 49//43
f 39//44 44//44 45//44 46//44
f 192//45 40//45 31//45 185//45
f 40//46 44//46 33//46 31//46
f 37//47 41//47 32//47
f 38//48 34//48 4//48 2//48
f 43//49 188//49 182//49
f 39//50 42//50 35//50
f 51//51 50//51 43//51 41//51
f 46//52 47//52 42//52 39//52
f 201//53 48//53 40//53 192//53
f 46//54 45//54 60//54 54//54
f 49//55 51//55 41//55 37//55
f 48//56 45//56 44//56 40//56
f 49//57 47//57 56//57 53//57
f 50//58 204//58 188//58 43//58
f 52//6 55//6 50//6 51//6
f 213//59 58//59 48//59 201//59
f 58//60 60//60 45//60 48//60
f 53//27 52//27 51//27 49//27
f 30//61 62//61 9//61
f 54//62 60//62 17//62
f 57//63 34//63 22//63
f 53//57 56//57 20//57
f 57//13 59//13 4//13
f 61//12 59//12 25//12
f 61//33 30//33 29//33
f 55//28 207//28 204//28 50//28
f 54//26 56//26 47//26 46//26
f 23//64 219//64 218//64
f 219//65 64//65 58//65
f 62//61 30//61 26//61
f 58//66 213//66 219//66
f 62//14 24//14 9//14
f 29//33 30//33 6//33
f 29//12 6//12 4//12
f 22//63 34//63 23//63
f 58//67 64//67 17//67
f 4//63 34//63 57//63
f 38//68 14//68 23//68
f 21//69 63//69 24//69
f 9//70 24//70 63//70
f 63//70 10//70 9//70
f 63//69 21//69 10//69
f 64//65 219//65 23//65
f 17//67 64//67 23//67
f 54//26 20//26 56//26
f 17//71 12//71 54//71
f 66//27 20//27 21//27
f 65//28 224//28 207//28 55//28
f 66//6 65//6 55//6 52//6
f 36//30 24//30 174//30
f 75//17 77//17 3//17
f 71//19 67//19 84//19 81//19
f 71//72 72//72 11//72 8//72
f 77//2 69//2 5//2 3//2
f 67//4 70//4 90//4 84//4
f 78//73 73//73 1//73
f 69//74 74//74 5//74
f 72//75 76//75 13//75 11//75
f 76//76 68//76 13//76
f 73//1 75//1 3//1 1//1
f 74//3 70//3 7//3 5//3
f 68//77 78//77 1//77 13//77
f 87//17 80//17 77//17 75//17
f 84//4 90//4 93//4 94//4
f 81//78 82//78 72//78 71//78
f 80//2 88//2 69//2 77//2
f 79//73 83//73 73//73 78//73
f 88//18 85//18 74//18 69//18
f 82//79 89//79 76//79 72//79
f 89//76 86//76 68//76 76//76
f 81//19 84//19 94//19 99//19
f 83//1 87//1 75//1 73//1
f 85//3 90//3 70//3 74//3
f 86//77 79//77 78//77 68//77
f 99//19 94//19 111//19 108//19
f 98//17 97//17 80//17 87//17
f 99//80 101//80 82//80 81//80
f 94//4 93//4 109//4 111//4
f 97//2 100//2 88//2 80//2
f 102//73 92//73 83//73 79//73
f 100//18 95//18 85//18 88//18
f 101//81 91//81 89//81 82//81
f 91//76 96//76 86//76 89//76
f 92//1 98//1 87//1 83//1
f 95//3 93//3 90//3 85//3
f 96//77 102//77 79//77 86//77
f 108//19 111//19 120//19 126//19
f 106//17 104//17 97//17 98//17
f 108//82 112//82 101//82 99//82
f 104//2 110//2 100//2 97//2
f 111//4 109//4 116//4 120//4
f 114//73 107//73 92//73 102//73
f 110//18 113//18 95//18 100//18
f 112//83 105//83 91//83 101//83
f 105//76 103//76 96//76 91//76
f 107//1 106//1 98//1 92//1
f 113//3 109//3 93//3 95//3
f 103//77 114//77 102//77 96//77
f 123//17 119//17 104//17 106//17
f 126//19 120//19 140//19 139//19
f 120//4 116//4 133//4 140//4
f 126//84 122//84 112//84 108//84
f 119//2 118//2 110//2 104//2
f 115//73 125//73 107//73 114//73
f 118//18 124//18 113//18 110//18
f 122//85 121//85 105//85 112//85
f 121//76 117//76 103//76 105//76
f 125//1 123//1 106//1 107//1
f 124//3 116//3 109//3 113//3
f 117//77 115//77 114//77 103//77
f 127//3 129//3 133//3 135//3
f 130//19 128//19 9//19 10//19
f 130//86 10//86 12//86
f 127//18 6//18 9//18
f 128//4 129//4 9//4
f 132//87 131//87 121//87 122//87
f 131//88 2//88 117//88 121//88
f 140//4 133//4 129//4 128//4
f 2//77 115//77 117//77
f 137//1 134//1 123//1 125//1
f 135//3 133//3 116//3 124//3
f 134//17 138//17 119//17 123//17
f 139//89 132//89 122//89 126//89
f 138//2 136//2 118//2 119//2
f 139//19 140//19 128//19 130//19
f 2//90 137//90 125//90 115//90
f 136//18 135//18 124//18 118//18
f 23//91 171//91 22//91
f 28//92 22//92 171//92
f 144//93 295//93 292//93
f 146//94 296//94 294//94
f 149//95 285//95 287//95
f 147//96 148//96 225//96 228//96
f 158//97 159//97 179//97 183//97
f 161//98 223//98 222//98
f 150//99 152//99 160//99
f 160//100 161//100 150//100
f 154//101 163//101 157//101
f 161//102 173//102 184//102
f 149//103 175//103 146//103
f 144//104 169//104 216//104 214//104
f 162//105 211//105 214//105 165//105
f 164//106 166//106 217//106
f 165//107 168//107 162//107
f 142//108 295//108 144//108
f 144//109 292//109 296//109 146//109
f 146//110 294//110 293//110 285//110
f 148//111 229//111 225//111
f 154//112 152//112 290//112 289//112
f 171//21 218//21 163//21
f 154//113 289//113 142//113
f 157//114 212//114 215//114
f 158//115 183//115 180//115 156//115
f 163//116 187//116 181//116
f 152//117 208//117 160//117
f 160//118 206//118 205//118 223//118
f 161//119 222//119 224//119 173//119
f 154//120 157//120 152//120
f 161//121 184//121 164//121
f 142//122 187//122 154//122
f 176//123 167//123 164//123 174//123
f 165//124 216//124 175//124 166//124
f 152//125 288//125 297//125 290//125
f 164//126 167//126 166//126
f 171//127 168//127 177//127
f 179//128 159//128 172//128 182//128
f 185//129 170//129 155//129 178//129
f 178//130 155//130 156//130 180//130
f 173//102 174//102 184//102
f 179//131 186//131 193//131 183//131
f 183//132 189//132 195//132 180//132
f 191//133 179//133 182//133 194//133
f 186//134 200//134 198//134 193//134
f 189//135 197//135 196//135 195//135
f 192//136 185//136 178//136 190//136
f 190//137 178//137 180//137 195//137
f 186//138 179//138 191//138
f 187//139 142//139 144//139 181//139
f 194//140 182//140 188//140
f 189//141 183//141 193//141
f 203//142 191//142 194//142 202//142
f 197//143 189//143 193//143 198//143
f 201//144 192//144 190//144 199//144
f 197//145 208//145 215//145 196//145
f 200//146 186//146 191//146 203//146
f 199//147 190//147 195//147 196//147
f 200//148 206//148 210//148 198//148
f 202//149 194//149 188//149 204//149
f 205//98 203//98 202//98 209//98
f 213//150 201//150 199//150 212//150
f 212//151 199//151 196//151 215//151
f 206//118 200//118 203//118 205//118
f 175//152 149//152 217//152
f 208//153 157//153 215//153
f 211//154 162//154 181//154
f 206//148 160//148 210//148
f 211//105 144//105 214//105
f 216//104 165//104 214//104
f 216//124 169//124 175//124
f 209//119 202//119 204//119 207//119
f 208//117 197//117 198//117 210//117
f 163//64 218//64 219//64
f 219//155 212//155 221//155
f 217//152 166//152 175//152
f 212//156 219//156 213//156
f 217//106 149//106 164//106
f 169//124 146//124 175//124
f 169//104 144//104 146//104
f 162//154 163//154 181//154
f 212//157 157//157 221//157
f 144//154 211//154 181//154
f 187//158 163//158 154//158
f 161//159 164//159 220//159
f 149//160 220//160 164//160
f 220//160 149//160 150//160
f 220//159 150//159 161//159
f 221//155 163//155 219//155
f 157//157 163//157 221//157
f 208//117 210//117 160//117
f 157//161 208//161 152//161
f 223//118 161//118 160//118
f 222//119 209//119 207//119 224//119
f 223//98 205//98 209//98 222//98
f 184//121 174//121 164//121
f 233//109 143//109 235//109
f 229//111 239//111 242//111 225//111
f 229//162 148//162 151//162 230//162
f 235//94 143//94 145//94 227//94
f 225//96 242//96 248//96 228//96
f 236//163 141//163 231//163
f 227//164 145//164 232//164
f 230//165 151//165 153//165 234//165
f 234//166 153//166 226//166
f 231//93 141//93 143//93 233//93
f 232//95 145//95 147//95 228//95
f 226//167 153//167 141//167 236//167
f 245//109 233//109 235//109 238//109
f 242//96 252//96 251//96 248//96
f 239//168 229//168 230//168 240//168
f 238//94 235//94 227//94 246//94
f 237//163 236//163 231//163 241//163
f 246//110 227//110 232//110 243//110
f 240//169 230//169 234//169 247//169
f 247//166 234//166 226//166 244//166
f 239//111 257//111 252//111 242//111
f 241//93 231//93 233//93 245//93
f 243//95 232//95 228//95 248//95
f 244//167 226//167 236//167 237//167
f 257//111 266//111 269//111 252//111
f 256//109 245//109 238//109 255//109
f 257//170 239//170 240//170 259//170
f 252//96 269//96 267//96 251//96
f 255//94 238//94 246//94 258//94
f 260//163 237//163 241//163 250//163
f 258//110 246//110 243//110 253//110
f 259//171 240//171 247//171 249//171
f 249//166 247//166 244//166 254//166
f 250//93 241//93 245//93 256//93
f 253//95 243//95 248//95 251//95
f 254//167 244//167 237//167 260//167
f 266//111 284//111 278//111 269//111
f 264//109 256//109 255//109 262//109
f 266//172 257//172 259//172 270//172
f 262//94 255//94 258//94 268//94
f 269//96 278//96 274//96 267//96
f 272//163 260//163 250//163 265//163
f 268//110 258//110 253//110 271//110
f 270//173 259//173 249//173 263//173
f 263//166 249//166 254//166 261//166
f 265//93 250//93 256//93 264//93
f 271//95 253//95 251//95 267//95
f 261//167 254//167 260//167 272//167
f 281//109 264//109 262//109 277//109
f 284//111 297//111 298//111 278//111
f 278//96 298//96 291//96 274//96
f 284//174 266//174 270//174 280//174
f 277//94 262//94 268//94 276//94
f 273//163 272//163 265//163 283//163
f 276//110 268//110 271//110 282//110
f 280//175 270//175 263//175 279//175
f 279//166 263//166 261//166 275//166
f 283//176 265//176 264//176 281//176
f 282//95 271//95 267//95 274//95
f 275//167 261//167 272//167 273//167
f 285//95 293//95 291//95 287//95
f 288//111 150//111 149//111 286//111
f 288//177 152//177 150//177
f 285//110 149//110 146//110
f 286//96 149//96 287//96
f 290//178 280//178 279//178 289//178
f 289//179 279//179 275//179 142//179
f 298//96 286//96 287//96 291//96
f 142//167 275//167 273//167
f 295//93 283//93 281//93 292//93
f 293//95 282//95 274//95 291//95
f 292//109 281//109 277//109 296//109
f 297//180 284//180 280//180 290//180
f 296//94 277//94 276//94 294//94
f 297//111 288//111 286//111 298//111
f 142//181 273//181 283//181 295//181
f 294//110 276//110 282//110 293//110
f 163//182 162//182 171//182
f 168//183 171//183 162//183
