# Blender v2.79 (sub 0) OBJ File: 'spodnica.blend'
# www.blender.org
mtllib spodnica.mtl
o Cylinder.001_Cylinder.002
v -0.030477 1.091090 0.142501
v -0.059782 1.091090 0.135767
v -0.086790 1.091090 0.124830
v -0.110463 1.091090 0.110113
v -0.129891 1.091090 0.092179
v -0.144327 1.091090 0.071719
v -0.153216 1.091090 0.049518
v -0.156218 1.091090 0.026430
v -0.153216 1.091090 0.003342
v -0.144327 1.091090 -0.018858
v -0.129890 1.091090 -0.039319
v -0.110463 1.091090 -0.057252
v -0.086790 1.091090 -0.071970
v -0.059782 1.091090 -0.082906
v -0.030476 1.091090 -0.089641
v -0.034218 0.995995 0.138728
v -0.067120 0.995995 0.131404
v -0.097443 0.995995 0.119510
v -0.124022 0.995995 0.103505
v -0.145834 0.995995 0.084002
v -0.162042 0.995995 0.061751
v -0.172023 0.995995 0.037607
v -0.175394 0.995995 0.012498
v -0.172023 0.995995 -0.012610
v -0.162042 0.995995 -0.036754
v -0.145834 0.995995 -0.059005
v -0.124022 0.995995 -0.078508
v -0.097443 0.995995 -0.094514
v -0.067120 0.995995 -0.106407
v -0.034217 0.995995 -0.113731
v -0.037816 0.923167 0.134640
v -0.074178 0.923167 0.126891
v -0.107690 0.923167 0.114306
v -0.137063 0.923167 0.097370
v -0.161169 0.923167 0.076733
v -0.179082 0.923167 0.053189
v -0.190112 0.923167 0.027642
v -0.193837 0.923167 0.001074
v -0.190112 0.923167 -0.025494
v -0.179082 0.923167 -0.051042
v -0.161169 0.923167 -0.074586
v -0.137063 0.923167 -0.095222
v -0.107690 0.923167 -0.112159
v -0.074178 0.923167 -0.124743
v -0.037815 0.923167 -0.132493
v -0.039705 0.870573 0.141314
v -0.077884 0.870573 0.133177
v -0.113070 0.870573 0.119963
v -0.143911 0.870573 0.102181
v -0.169222 0.870573 0.080513
v -0.188029 0.870573 0.055793
v -0.199611 0.870573 0.028969
v -0.203521 0.870573 0.001074
v -0.199611 0.870573 -0.026822
v -0.188029 0.870573 -0.053645
v -0.169222 0.870573 -0.078366
v -0.143911 0.870573 -0.100034
v -0.113070 0.870573 -0.117816
v -0.077884 0.870573 -0.131029
v -0.039705 0.870573 -0.139166
v 0.000000 1.091090 -0.091914
v 0.000000 1.091090 0.144775
v 0.030477 1.091090 0.142501
v 0.059782 1.091090 0.135767
v 0.086790 1.091090 0.124830
v 0.110463 1.091090 0.110113
v 0.129891 1.091090 0.092179
v 0.144327 1.091090 0.071719
v 0.153216 1.091090 0.049518
v 0.156218 1.091090 0.026430
v 0.153216 1.091090 0.003342
v 0.144327 1.091090 -0.018858
v 0.129890 1.091090 -0.039319
v 0.110463 1.091090 -0.057252
v 0.086790 1.091090 -0.071970
v 0.059782 1.091090 -0.082906
v 0.030476 1.091090 -0.089641
v 0.000000 0.995995 -0.116204
v 0.000000 0.995995 0.141201
v 0.034218 0.995995 0.138728
v 0.067120 0.995995 0.131404
v 0.097443 0.995995 0.119510
v 0.124022 0.995995 0.103505
v 0.145834 0.995995 0.084002
v 0.162042 0.995995 0.061751
v 0.172023 0.995995 0.037607
v 0.175394 0.995995 0.012498
v 0.172023 0.995995 -0.012610
v 0.162042 0.995995 -0.036754
v 0.145834 0.995995 -0.059005
v 0.124022 0.995995 -0.078508
v 0.097443 0.995995 -0.094514
v 0.067120 0.995995 -0.106407
v 0.034217 0.995995 -0.113731
v -0.000000 0.923167 -0.135109
v -0.000000 0.923167 0.137257
v 0.037816 0.923167 0.134640
v 0.074178 0.923167 0.126891
v 0.107690 0.923167 0.114306
v 0.137063 0.923167 0.097370
v 0.161169 0.923167 0.076733
v 0.179082 0.923167 0.053189
v 0.190112 0.923167 0.027642
v 0.193837 0.923167 0.001074
v 0.190112 0.923167 -0.025494
v 0.179082 0.923167 -0.051042
v 0.161169 0.923167 -0.074586
v 0.137063 0.923167 -0.095222
v 0.107690 0.923167 -0.112159
v 0.074178 0.923167 -0.124743
v 0.037815 0.923167 -0.132493
v -0.000000 0.870573 -0.141914
v -0.000000 0.870573 0.144061
v 0.039705 0.870573 0.141314
v 0.077884 0.870573 0.133177
v 0.113070 0.870573 0.119963
v 0.143911 0.870573 0.102181
v 0.169222 0.870573 0.080513
v 0.188029 0.870573 0.055793
v 0.199611 0.870573 0.028969
v 0.203521 0.870573 0.001074
v 0.199611 0.870573 -0.026822
v 0.188029 0.870573 -0.053645
v 0.169222 0.870573 -0.078366
v 0.143911 0.870573 -0.100034
v 0.113070 0.870573 -0.117816
v 0.077884 0.870573 -0.131029
v 0.039705 0.870573 -0.139166
v -0.041811 0.790115 0.148752
v -0.082015 0.790115 0.140183
v -0.119068 0.790115 0.126269
v -0.151544 0.790115 0.107543
v -0.178197 0.790115 0.084726
v -0.198002 0.790115 0.058695
v -0.210198 0.790115 0.030448
v -0.214316 0.790115 0.001074
v -0.210198 0.790115 -0.028301
v -0.198002 0.790115 -0.056548
v -0.178197 0.790115 -0.082579
v -0.151544 0.790115 -0.105396
v -0.119067 0.790115 -0.124122
v -0.082015 0.790115 -0.138036
v -0.041811 0.790115 -0.146604
v -0.000000 0.790115 -0.149497
v -0.000000 0.790115 0.151645
v 0.041811 0.790115 0.148752
v 0.082015 0.790115 0.140183
v 0.119068 0.790115 0.126269
v 0.151544 0.790115 0.107543
v 0.178197 0.790115 0.084726
v 0.198002 0.790115 0.058695
v 0.210198 0.790115 0.030448
v 0.214316 0.790115 0.001074
v 0.210198 0.790115 -0.028301
v 0.198002 0.790115 -0.056548
v 0.178197 0.790115 -0.082579
v 0.151544 0.790115 -0.105396
v 0.119067 0.790115 -0.124122
v 0.082015 0.790115 -0.138036
v 0.041811 0.790115 -0.146604
v -0.092192 1.042868 -0.083402
v -0.117338 1.042868 -0.068031
v 0.000000 1.042868 0.142963
v -0.063503 1.042868 -0.094823
v -0.032374 1.042868 0.140588
v -0.032373 1.042868 -0.101857
v -0.063503 1.042868 0.133554
v 0.000000 1.042868 -0.104232
v -0.092192 1.042868 0.122133
v -0.117339 1.042868 0.106762
v -0.137976 1.042868 0.088032
v -0.153310 1.042868 0.066664
v -0.162753 1.042868 0.043478
v -0.165942 1.042868 0.019365
v -0.162753 1.042868 -0.004747
v -0.153310 1.042868 -0.027933
v -0.137976 1.042868 -0.049302
v 0.092192 1.042868 -0.083402
v 0.117338 1.042868 -0.068031
v 0.063503 1.042868 -0.094823
v 0.032374 1.042868 0.140588
v 0.032373 1.042868 -0.101857
v 0.063503 1.042868 0.133554
v 0.092192 1.042868 0.122133
v 0.117339 1.042868 0.106762
v 0.137976 1.042868 0.088032
v 0.153310 1.042868 0.066664
v 0.162753 1.042868 0.043478
v 0.165942 1.042868 0.019365
v 0.162753 1.042868 -0.004747
v 0.153310 1.042868 -0.027933
v 0.137976 1.042868 -0.049302
vn 0.5016 -0.2543 0.8269
vn 0.3556 -0.2516 0.9001
vn 0.0726 0.0371 -0.9967
vn 0.2119 -0.2488 0.9451
vn 0.2187 0.0290 -0.9754
vn 0.0704 -0.2472 0.9664
vn 0.3674 0.0126 -0.9300
vn 0.5186 -0.0124 -0.8549
vn 0.6685 -0.0460 -0.7423
vn 0.8072 -0.0872 -0.5837
vn 0.9169 -0.1328 -0.3763
vn 0.9756 -0.1772 -0.1300
vn 0.9683 -0.2137 0.1290
vn 0.8985 -0.2382 0.3687
vn 0.7844 -0.2509 0.5672
vn 0.6471 -0.2550 0.7185
vn 0.9658 -0.2228 -0.1326
vn 0.9562 -0.2617 0.1313
vn 0.8835 -0.2828 0.3736
vn 0.7679 -0.2880 0.5722
vn 0.6312 -0.2831 0.7221
vn 0.4880 -0.2735 0.8289
vn 0.3454 -0.2635 0.9007
vn 0.0704 0.0532 -0.9961
vn 0.2056 -0.2556 0.9447
vn 0.2125 0.0421 -0.9763
vn 0.0682 -0.2514 0.9655
vn 0.3580 0.0198 -0.9335
vn 0.5073 -0.0140 -0.8617
vn 0.6570 -0.0588 -0.7516
vn 0.7968 -0.1126 -0.5937
vn 0.9076 -0.1701 -0.3838
vn 0.9742 -0.1794 -0.1366
vn 0.0685 -0.1280 -0.9894
vn 0.0685 -0.1280 0.9894
vn 0.9742 -0.1794 0.1366
vn 0.2067 -0.1305 -0.9697
vn 0.9042 -0.1732 0.3904
vn 0.3483 -0.1354 -0.9275
vn 0.7852 -0.1632 0.5974
vn 0.4944 -0.1428 -0.8574
vn 0.6427 -0.1524 0.7508
vn 0.6427 -0.1524 -0.7508
vn 0.4944 -0.1428 0.8574
vn 0.7852 -0.1632 -0.5974
vn 0.3483 -0.1354 0.9275
vn 0.9042 -0.1732 -0.3904
vn 0.2067 -0.1305 0.9697
vn -0.5016 -0.2543 0.8269
vn -0.3556 -0.2516 0.9001
vn -0.0726 0.0371 -0.9967
vn -0.2119 -0.2488 0.9451
vn -0.2187 0.0290 -0.9754
vn -0.0704 -0.2472 0.9664
vn -0.3674 0.0126 -0.9300
vn -0.5186 -0.0124 -0.8549
vn -0.6685 -0.0460 -0.7423
vn -0.8072 -0.0872 -0.5837
vn -0.9169 -0.1328 -0.3763
vn -0.9756 -0.1772 -0.1300
vn -0.9683 -0.2137 0.1290
vn -0.8985 -0.2382 0.3687
vn -0.7844 -0.2509 0.5672
vn -0.6471 -0.2550 0.7185
vn -0.9658 -0.2228 -0.1326
vn -0.9562 -0.2617 0.1313
vn -0.8835 -0.2828 0.3736
vn -0.7679 -0.2880 0.5722
vn -0.6312 -0.2831 0.7221
vn -0.4880 -0.2735 0.8289
vn -0.3454 -0.2635 0.9007
vn -0.0704 0.0532 -0.9961
vn -0.2056 -0.2556 0.9447
vn -0.2125 0.0421 -0.9763
vn -0.0682 -0.2514 0.9655
vn -0.3580 0.0198 -0.9335
vn -0.5073 -0.0140 -0.8617
vn -0.6570 -0.0588 -0.7516
vn -0.7968 -0.1126 -0.5937
vn -0.9076 -0.1701 -0.3838
vn -0.9742 -0.1794 -0.1366
vn -0.0685 -0.1280 -0.9894
vn -0.0685 -0.1280 0.9894
vn -0.9742 -0.1794 0.1366
vn -0.2067 -0.1305 -0.9697
vn -0.9042 -0.1732 0.3904
vn -0.3483 -0.1354 -0.9275
vn -0.7852 -0.1632 0.5974
vn -0.4944 -0.1428 -0.8574
vn -0.6427 -0.1524 0.7508
vn -0.6427 -0.1524 -0.7508
vn -0.4944 -0.1428 0.8574
vn -0.7852 -0.1632 -0.5974
vn -0.3483 -0.1354 0.9275
vn -0.9042 -0.1732 -0.3904
vn -0.2067 -0.1305 0.9697
vn 0.3498 -0.0991 -0.9316
vn -0.4968 -0.1045 0.8616
vn 0.4968 -0.1045 -0.8616
vn -0.3498 -0.0991 0.9316
vn -0.0687 -0.0936 -0.9932
vn 0.6463 -0.1116 -0.7549
vn -0.2075 -0.0954 0.9736
vn -0.2075 -0.0954 -0.9736
vn 0.7901 -0.1196 -0.6011
vn -0.0687 -0.0936 0.9932
vn -0.3498 -0.0991 -0.9316
vn 0.9106 -0.1271 -0.3932
vn -0.4968 -0.1045 -0.8616
vn 0.9817 -0.1317 -0.1376
vn -0.6463 -0.1116 -0.7549
vn 0.9817 -0.1317 0.1376
vn -0.7901 -0.1196 -0.6011
vn 0.9106 -0.1271 0.3932
vn -0.9106 -0.1271 -0.3932
vn 0.7901 -0.1196 0.6011
vn -0.9817 -0.1317 -0.1376
vn 0.6463 -0.1116 0.7549
vn -0.9817 -0.1317 0.1376
vn 0.4968 -0.1045 0.8616
vn -0.9106 -0.1271 0.3932
vn 0.3498 -0.0991 0.9316
vn 0.0687 -0.0936 -0.9932
vn -0.7901 -0.1196 0.6011
vn 0.2075 -0.0954 0.9736
vn 0.2075 -0.0954 -0.9736
vn -0.6463 -0.1116 0.7549
vn 0.0687 -0.0936 0.9932
vn -0.6528 -0.2548 0.7134
vn -0.7887 -0.2505 0.5614
vn -0.9006 -0.2377 0.3638
vn -0.9687 -0.2134 0.1270
vn -0.9758 -0.1775 -0.1280
vn -0.9189 -0.1338 -0.3712
vn -0.8115 -0.0885 -0.5776
vn -0.6743 -0.0473 -0.7369
vn -0.5246 -0.0134 -0.8512
vn -0.3725 0.0120 -0.9280
vn -0.0715 -0.2472 0.9663
vn -0.2220 0.0288 -0.9746
vn -0.2151 -0.2488 0.9444
vn -0.0737 0.0371 -0.9966
vn -0.3605 -0.2516 0.8982
vn -0.5074 -0.2542 0.8233
vn 0.6528 -0.2548 0.7134
vn 0.7887 -0.2505 0.5614
vn 0.9006 -0.2377 0.3638
vn 0.9687 -0.2134 0.1270
vn 0.9758 -0.1775 -0.1280
vn 0.9189 -0.1338 -0.3712
vn 0.8115 -0.0885 -0.5776
vn 0.6743 -0.0473 -0.7369
vn 0.5246 -0.0134 -0.8512
vn 0.3725 0.0120 -0.9280
vn 0.0715 -0.2472 0.9663
vn 0.2220 0.0288 -0.9746
vn 0.2151 -0.2488 0.9444
vn 0.0737 0.0371 -0.9966
vn 0.3605 -0.2516 0.8982
vn 0.5074 -0.2542 0.8233
usemtl None
s off
f 161//1 162//1 27//1 28//1
f 164//2 161//2 28//2 29//2
f 165//3 163//3 79//3 16//3
f 166//4 164//4 29//4 30//4
f 167//5 165//5 16//5 17//5
f 168//6 166//6 30//6 78//6
f 169//7 167//7 17//7 18//7
f 170//8 169//8 18//8 19//8
f 171//9 170//9 19//9 20//9
f 172//10 171//10 20//10 21//10
f 173//11 172//11 21//11 22//11
f 174//12 173//12 22//12 23//12
f 175//13 174//13 23//13 24//13
f 176//14 175//14 24//14 25//14
f 177//15 176//15 25//15 26//15
f 162//16 177//16 26//16 27//16
f 23//17 22//17 37//17 38//17
f 24//18 23//18 38//18 39//18
f 25//19 24//19 39//19 40//19
f 26//20 25//20 40//20 41//20
f 27//21 26//21 41//21 42//21
f 28//22 27//22 42//22 43//22
f 29//23 28//23 43//23 44//23
f 16//24 79//24 96//24 31//24
f 30//25 29//25 44//25 45//25
f 17//26 16//26 31//26 32//26
f 78//27 30//27 45//27 95//27
f 18//28 17//28 32//28 33//28
f 19//29 18//29 33//29 34//29
f 20//30 19//30 34//30 35//30
f 21//31 20//31 35//31 36//31
f 22//32 21//32 36//32 37//32
f 38//33 37//33 52//33 53//33
f 31//34 96//34 113//34 46//34
f 95//35 45//35 60//35 112//35
f 39//36 38//36 53//36 54//36
f 32//37 31//37 46//37 47//37
f 40//38 39//38 54//38 55//38
f 33//39 32//39 47//39 48//39
f 41//40 40//40 55//40 56//40
f 34//41 33//41 48//41 49//41
f 42//42 41//42 56//42 57//42
f 35//43 34//43 49//43 50//43
f 43//44 42//44 57//44 58//44
f 36//45 35//45 50//45 51//45
f 44//46 43//46 58//46 59//46
f 37//47 36//47 51//47 52//47
f 45//48 44//48 59//48 60//48
f 178//49 92//49 91//49 179//49
f 180//50 93//50 92//50 178//50
f 181//51 80//51 79//51 163//51
f 182//52 94//52 93//52 180//52
f 183//53 81//53 80//53 181//53
f 168//54 78//54 94//54 182//54
f 184//55 82//55 81//55 183//55
f 185//56 83//56 82//56 184//56
f 186//57 84//57 83//57 185//57
f 187//58 85//58 84//58 186//58
f 188//59 86//59 85//59 187//59
f 189//60 87//60 86//60 188//60
f 190//61 88//61 87//61 189//61
f 191//62 89//62 88//62 190//62
f 192//63 90//63 89//63 191//63
f 179//64 91//64 90//64 192//64
f 87//65 104//65 103//65 86//65
f 88//66 105//66 104//66 87//66
f 89//67 106//67 105//67 88//67
f 90//68 107//68 106//68 89//68
f 91//69 108//69 107//69 90//69
f 92//70 109//70 108//70 91//70
f 93//71 110//71 109//71 92//71
f 80//72 97//72 96//72 79//72
f 94//73 111//73 110//73 93//73
f 81//74 98//74 97//74 80//74
f 78//75 95//75 111//75 94//75
f 82//76 99//76 98//76 81//76
f 83//77 100//77 99//77 82//77
f 84//78 101//78 100//78 83//78
f 85//79 102//79 101//79 84//79
f 86//80 103//80 102//80 85//80
f 104//81 121//81 120//81 103//81
f 97//82 114//82 113//82 96//82
f 95//83 112//83 128//83 111//83
f 105//84 122//84 121//84 104//84
f 98//85 115//85 114//85 97//85
f 106//86 123//86 122//86 105//86
f 99//87 116//87 115//87 98//87
f 107//88 124//88 123//88 106//88
f 100//89 117//89 116//89 99//89
f 108//90 125//90 124//90 107//90
f 101//91 118//91 117//91 100//91
f 109//92 126//92 125//92 108//92
f 102//93 119//93 118//93 101//93
f 110//94 127//94 126//94 109//94
f 103//95 120//95 119//95 102//95
f 111//96 128//96 127//96 110//96
f 48//97 47//97 130//97 131//97
f 125//98 126//98 158//98 157//98
f 49//99 48//99 131//99 132//99
f 126//100 127//100 159//100 158//100
f 113//101 114//101 146//101 145//101
f 50//102 49//102 132//102 133//102
f 127//103 128//103 160//103 159//103
f 114//104 115//104 147//104 146//104
f 51//105 50//105 133//105 134//105
f 128//106 112//106 144//106 160//106
f 115//107 116//107 148//107 147//107
f 52//108 51//108 134//108 135//108
f 116//109 117//109 149//109 148//109
f 53//110 52//110 135//110 136//110
f 117//111 118//111 150//111 149//111
f 54//112 53//112 136//112 137//112
f 118//113 119//113 151//113 150//113
f 55//114 54//114 137//114 138//114
f 119//115 120//115 152//115 151//115
f 56//116 55//116 138//116 139//116
f 120//117 121//117 153//117 152//117
f 57//118 56//118 139//118 140//118
f 121//119 122//119 154//119 153//119
f 58//120 57//120 140//120 141//120
f 122//121 123//121 155//121 154//121
f 59//122 58//122 141//122 142//122
f 46//123 113//123 145//123 129//123
f 123//124 124//124 156//124 155//124
f 60//125 59//125 142//125 143//125
f 47//126 46//126 129//126 130//126
f 124//127 125//127 157//127 156//127
f 112//128 60//128 143//128 144//128
f 74//129 179//129 192//129 73//129
f 73//130 192//130 191//130 72//130
f 72//131 191//131 190//131 71//131
f 71//132 190//132 189//132 70//132
f 70//133 189//133 188//133 69//133
f 69//134 188//134 187//134 68//134
f 68//135 187//135 186//135 67//135
f 67//136 186//136 185//136 66//136
f 66//137 185//137 184//137 65//137
f 65//138 184//138 183//138 64//138
f 61//139 168//139 182//139 77//139
f 64//140 183//140 181//140 63//140
f 77//141 182//141 180//141 76//141
f 63//142 181//142 163//142 62//142
f 76//143 180//143 178//143 75//143
f 75//144 178//144 179//144 74//144
f 12//145 11//145 177//145 162//145
f 11//146 10//146 176//146 177//146
f 10//147 9//147 175//147 176//147
f 9//148 8//148 174//148 175//148
f 8//149 7//149 173//149 174//149
f 7//150 6//150 172//150 173//150
f 6//151 5//151 171//151 172//151
f 5//152 4//152 170//152 171//152
f 4//153 3//153 169//153 170//153
f 3//154 2//154 167//154 169//154
f 61//155 15//155 166//155 168//155
f 2//156 1//156 165//156 167//156
f 15//157 14//157 164//157 166//157
f 1//158 62//158 163//158 165//158
f 14//159 13//159 161//159 164//159
f 13//160 12//160 162//160 161//160
